<mxfile host="app.diagrams.net" agent="Mozilla/5.0 (Windows NT 10.0; Win64; x64; rv:136.0) Gecko/20100101 Firefox/136.0" version="26.1.0">
  <diagram name="Page-1" id="jzkVx-4W2rHWqBb6-yyN">
    <mxGraphModel dx="1750" dy="883" grid="1" gridSize="10" guides="1" tooltips="1" connect="1" arrows="1" fold="1" page="1" pageScale="1" pageWidth="827" pageHeight="1169" math="0" shadow="0">
      <root>
        <mxCell id="0" />
        <mxCell id="1" parent="0" />
        <mxCell id="SdMlt_PW4ARby_rtLCIt-1" value="" style="rounded=0;whiteSpace=wrap;html=1;fillColor=default;" vertex="1" parent="1">
          <mxGeometry x="120" y="40" width="1440" height="680" as="geometry" />
        </mxCell>
        <mxCell id="0c0-FA_5eSMNET2WRwTZ-1" value="&lt;div&gt;User&lt;/div&gt;" style="swimlane;whiteSpace=wrap;html=1;startSize=30;" parent="1" vertex="1">
          <mxGeometry x="700" y="80" width="280" height="190" as="geometry" />
        </mxCell>
        <mxCell id="0c0-FA_5eSMNET2WRwTZ-16" value="&lt;font style=&quot;font-size: 10px;&quot;&gt;-id: number&lt;/font&gt;" style="text;strokeColor=none;fillColor=none;align=left;verticalAlign=middle;spacingLeft=4;spacingRight=4;overflow=hidden;points=[[0,0.5],[1,0.5]];portConstraint=eastwest;rotatable=0;whiteSpace=wrap;html=1;" parent="0c0-FA_5eSMNET2WRwTZ-1" vertex="1">
          <mxGeometry y="30" width="280" height="20" as="geometry" />
        </mxCell>
        <mxCell id="0c0-FA_5eSMNET2WRwTZ-19" value="&lt;font style=&quot;font-size: 10px;&quot;&gt;+name: string&lt;/font&gt;" style="text;strokeColor=none;fillColor=none;align=left;verticalAlign=middle;spacingLeft=4;spacingRight=4;overflow=hidden;points=[[0,0.5],[1,0.5]];portConstraint=eastwest;rotatable=0;whiteSpace=wrap;html=1;" parent="0c0-FA_5eSMNET2WRwTZ-1" vertex="1">
          <mxGeometry y="50" width="280" height="20" as="geometry" />
        </mxCell>
        <mxCell id="0c0-FA_5eSMNET2WRwTZ-20" value="&lt;font style=&quot;font-size: 10px;&quot;&gt;-email: string&lt;/font&gt;" style="text;strokeColor=none;fillColor=none;align=left;verticalAlign=middle;spacingLeft=4;spacingRight=4;overflow=hidden;points=[[0,0.5],[1,0.5]];portConstraint=eastwest;rotatable=0;whiteSpace=wrap;html=1;" parent="0c0-FA_5eSMNET2WRwTZ-1" vertex="1">
          <mxGeometry y="70" width="280" height="20" as="geometry" />
        </mxCell>
        <mxCell id="0c0-FA_5eSMNET2WRwTZ-21" value="+role: string" style="text;strokeColor=none;fillColor=none;align=left;verticalAlign=middle;spacingLeft=4;spacingRight=4;overflow=hidden;points=[[0,0.5],[1,0.5]];portConstraint=eastwest;rotatable=0;whiteSpace=wrap;html=1;fontSize=10;" parent="0c0-FA_5eSMNET2WRwTZ-1" vertex="1">
          <mxGeometry y="90" width="280" height="20" as="geometry" />
        </mxCell>
        <mxCell id="0c0-FA_5eSMNET2WRwTZ-32" value="&lt;font style=&quot;font-size: 10px;&quot;&gt;-password: string&lt;/font&gt;" style="text;strokeColor=none;fillColor=none;align=left;verticalAlign=middle;spacingLeft=4;spacingRight=4;overflow=hidden;points=[[0,0.5],[1,0.5]];portConstraint=eastwest;rotatable=0;whiteSpace=wrap;html=1;" parent="0c0-FA_5eSMNET2WRwTZ-1" vertex="1">
          <mxGeometry y="110" width="280" height="20" as="geometry" />
        </mxCell>
        <mxCell id="0c0-FA_5eSMNET2WRwTZ-33" value="&lt;font style=&quot;font-size: 10px;&quot;&gt;&lt;code&gt;+login(email: string, password: string)&lt;/code&gt;: bool&lt;/font&gt;" style="text;strokeColor=none;fillColor=none;align=left;verticalAlign=middle;spacingLeft=4;spacingRight=4;overflow=hidden;points=[[0,0.5],[1,0.5]];portConstraint=eastwest;rotatable=0;whiteSpace=wrap;html=1;" parent="0c0-FA_5eSMNET2WRwTZ-1" vertex="1">
          <mxGeometry y="130" width="280" height="20" as="geometry" />
        </mxCell>
        <mxCell id="0c0-FA_5eSMNET2WRwTZ-34" value="&lt;font style=&quot;font-size: 10px;&quot;&gt;&lt;code&gt;+logout(): void&lt;/code&gt;&lt;/font&gt;" style="text;strokeColor=none;fillColor=none;align=left;verticalAlign=middle;spacingLeft=4;spacingRight=4;overflow=hidden;points=[[0,0.5],[1,0.5]];portConstraint=eastwest;rotatable=0;whiteSpace=wrap;html=1;" parent="0c0-FA_5eSMNET2WRwTZ-1" vertex="1">
          <mxGeometry y="150" width="280" height="20" as="geometry" />
        </mxCell>
        <mxCell id="0c0-FA_5eSMNET2WRwTZ-35" value="&lt;font style=&quot;font-size: 10px;&quot;&gt;&lt;code&gt;+updateProfile(name: string, email: string): void&lt;/code&gt;&lt;/font&gt;" style="text;strokeColor=none;fillColor=none;align=left;verticalAlign=middle;spacingLeft=4;spacingRight=4;overflow=hidden;points=[[0,0.5],[1,0.5]];portConstraint=eastwest;rotatable=0;whiteSpace=wrap;html=1;" parent="0c0-FA_5eSMNET2WRwTZ-1" vertex="1">
          <mxGeometry y="170" width="280" height="20" as="geometry" />
        </mxCell>
        <mxCell id="0c0-FA_5eSMNET2WRwTZ-36" value="" style="endArrow=none;html=1;rounded=0;entryX=1.001;entryY=-0.002;entryDx=0;entryDy=0;entryPerimeter=0;" parent="0c0-FA_5eSMNET2WRwTZ-1" target="0c0-FA_5eSMNET2WRwTZ-33" edge="1">
          <mxGeometry width="50" height="50" relative="1" as="geometry">
            <mxPoint y="130" as="sourcePoint" />
            <mxPoint x="200" y="130" as="targetPoint" />
          </mxGeometry>
        </mxCell>
        <mxCell id="0c0-FA_5eSMNET2WRwTZ-38" value="Post" style="swimlane;whiteSpace=wrap;html=1;startSize=30;" parent="1" vertex="1">
          <mxGeometry x="1241" y="170" width="280" height="170" as="geometry" />
        </mxCell>
        <mxCell id="0c0-FA_5eSMNET2WRwTZ-39" value="&lt;font style=&quot;font-size: 10px;&quot;&gt;-id: number&lt;/font&gt;" style="text;strokeColor=none;fillColor=none;align=left;verticalAlign=middle;spacingLeft=4;spacingRight=4;overflow=hidden;points=[[0,0.5],[1,0.5]];portConstraint=eastwest;rotatable=0;whiteSpace=wrap;html=1;" parent="0c0-FA_5eSMNET2WRwTZ-38" vertex="1">
          <mxGeometry y="30" width="280" height="20" as="geometry" />
        </mxCell>
        <mxCell id="0c0-FA_5eSMNET2WRwTZ-40" value="&lt;div&gt;&lt;font style=&quot;font-size: 10px;&quot;&gt;+title: string&lt;/font&gt;&lt;/div&gt;" style="text;strokeColor=none;fillColor=none;align=left;verticalAlign=middle;spacingLeft=4;spacingRight=4;overflow=hidden;points=[[0,0.5],[1,0.5]];portConstraint=eastwest;rotatable=0;whiteSpace=wrap;html=1;" parent="0c0-FA_5eSMNET2WRwTZ-38" vertex="1">
          <mxGeometry y="50" width="280" height="20" as="geometry" />
        </mxCell>
        <mxCell id="0c0-FA_5eSMNET2WRwTZ-41" value="&lt;font style=&quot;font-size: 10px;&quot;&gt;+content: string&lt;/font&gt;" style="text;strokeColor=none;fillColor=none;align=left;verticalAlign=middle;spacingLeft=4;spacingRight=4;overflow=hidden;points=[[0,0.5],[1,0.5]];portConstraint=eastwest;rotatable=0;whiteSpace=wrap;html=1;" parent="0c0-FA_5eSMNET2WRwTZ-38" vertex="1">
          <mxGeometry y="70" width="280" height="20" as="geometry" />
        </mxCell>
        <mxCell id="0c0-FA_5eSMNET2WRwTZ-42" value="+authorID: number" style="text;strokeColor=none;fillColor=none;align=left;verticalAlign=middle;spacingLeft=4;spacingRight=4;overflow=hidden;points=[[0,0.5],[1,0.5]];portConstraint=eastwest;rotatable=0;whiteSpace=wrap;html=1;fontSize=10;" parent="0c0-FA_5eSMNET2WRwTZ-38" vertex="1">
          <mxGeometry y="90" width="280" height="20" as="geometry" />
        </mxCell>
        <mxCell id="0c0-FA_5eSMNET2WRwTZ-43" value="&lt;font style=&quot;font-size: 10px;&quot;&gt;+CreatedAt: Date&lt;/font&gt;" style="text;strokeColor=none;fillColor=none;align=left;verticalAlign=middle;spacingLeft=4;spacingRight=4;overflow=hidden;points=[[0,0.5],[1,0.5]];portConstraint=eastwest;rotatable=0;whiteSpace=wrap;html=1;" parent="0c0-FA_5eSMNET2WRwTZ-38" vertex="1">
          <mxGeometry y="110" width="280" height="20" as="geometry" />
        </mxCell>
        <mxCell id="0c0-FA_5eSMNET2WRwTZ-44" value="&lt;font style=&quot;font-size: 10px;&quot;&gt;&lt;code&gt;+createPost(title: string, content: string): void&lt;/code&gt;&lt;/font&gt;" style="text;strokeColor=none;fillColor=none;align=left;verticalAlign=middle;spacingLeft=4;spacingRight=4;overflow=hidden;points=[[0,0.5],[1,0.5]];portConstraint=eastwest;rotatable=0;whiteSpace=wrap;html=1;" parent="0c0-FA_5eSMNET2WRwTZ-38" vertex="1">
          <mxGeometry y="130" width="280" height="20" as="geometry" />
        </mxCell>
        <mxCell id="0c0-FA_5eSMNET2WRwTZ-45" value="&lt;font style=&quot;font-size: 10px;&quot;&gt;&lt;code&gt;+deletePost(): void&lt;/code&gt;&lt;/font&gt;" style="text;strokeColor=none;fillColor=none;align=left;verticalAlign=middle;spacingLeft=4;spacingRight=4;overflow=hidden;points=[[0,0.5],[1,0.5]];portConstraint=eastwest;rotatable=0;whiteSpace=wrap;html=1;" parent="0c0-FA_5eSMNET2WRwTZ-38" vertex="1">
          <mxGeometry y="150" width="280" height="20" as="geometry" />
        </mxCell>
        <mxCell id="0c0-FA_5eSMNET2WRwTZ-47" value="" style="endArrow=none;html=1;rounded=0;entryX=1;entryY=0;entryDx=0;entryDy=0;entryPerimeter=0;" parent="0c0-FA_5eSMNET2WRwTZ-38" target="0c0-FA_5eSMNET2WRwTZ-44" edge="1">
          <mxGeometry width="50" height="50" relative="1" as="geometry">
            <mxPoint y="130" as="sourcePoint" />
            <mxPoint x="200" y="130" as="targetPoint" />
          </mxGeometry>
        </mxCell>
        <mxCell id="0c0-FA_5eSMNET2WRwTZ-86" style="edgeStyle=orthogonalEdgeStyle;rounded=0;orthogonalLoop=1;jettySize=auto;html=1;exitX=1;exitY=0.5;exitDx=0;exitDy=0;entryX=0;entryY=0.5;entryDx=0;entryDy=0;" parent="1" source="0c0-FA_5eSMNET2WRwTZ-49" target="0c0-FA_5eSMNET2WRwTZ-21" edge="1">
          <mxGeometry relative="1" as="geometry" />
        </mxCell>
        <mxCell id="0c0-FA_5eSMNET2WRwTZ-49" value="Event" style="swimlane;whiteSpace=wrap;html=1;startSize=30;" parent="1" vertex="1">
          <mxGeometry x="160" y="170" width="280" height="210" as="geometry" />
        </mxCell>
        <mxCell id="0c0-FA_5eSMNET2WRwTZ-50" value="&lt;font style=&quot;font-size: 10px;&quot;&gt;-id: number&lt;/font&gt;" style="text;strokeColor=none;fillColor=none;align=left;verticalAlign=middle;spacingLeft=4;spacingRight=4;overflow=hidden;points=[[0,0.5],[1,0.5]];portConstraint=eastwest;rotatable=0;whiteSpace=wrap;html=1;" parent="0c0-FA_5eSMNET2WRwTZ-49" vertex="1">
          <mxGeometry y="30" width="280" height="20" as="geometry" />
        </mxCell>
        <mxCell id="0c0-FA_5eSMNET2WRwTZ-51" value="&lt;font style=&quot;font-size: 10px;&quot;&gt;+title: string&lt;/font&gt;" style="text;strokeColor=none;fillColor=none;align=left;verticalAlign=middle;spacingLeft=4;spacingRight=4;overflow=hidden;points=[[0,0.5],[1,0.5]];portConstraint=eastwest;rotatable=0;whiteSpace=wrap;html=1;" parent="0c0-FA_5eSMNET2WRwTZ-49" vertex="1">
          <mxGeometry y="50" width="280" height="20" as="geometry" />
        </mxCell>
        <mxCell id="0c0-FA_5eSMNET2WRwTZ-52" value="&lt;font style=&quot;font-size: 10px;&quot;&gt;+description: string&lt;/font&gt;" style="text;strokeColor=none;fillColor=none;align=left;verticalAlign=middle;spacingLeft=4;spacingRight=4;overflow=hidden;points=[[0,0.5],[1,0.5]];portConstraint=eastwest;rotatable=0;whiteSpace=wrap;html=1;" parent="0c0-FA_5eSMNET2WRwTZ-49" vertex="1">
          <mxGeometry y="70" width="280" height="20" as="geometry" />
        </mxCell>
        <mxCell id="0c0-FA_5eSMNET2WRwTZ-53" value="+date: Date" style="text;strokeColor=none;fillColor=none;align=left;verticalAlign=middle;spacingLeft=4;spacingRight=4;overflow=hidden;points=[[0,0.5],[1,0.5]];portConstraint=eastwest;rotatable=0;whiteSpace=wrap;html=1;fontSize=10;" parent="0c0-FA_5eSMNET2WRwTZ-49" vertex="1">
          <mxGeometry y="90" width="280" height="20" as="geometry" />
        </mxCell>
        <mxCell id="0c0-FA_5eSMNET2WRwTZ-54" value="&lt;font style=&quot;font-size: 10px;&quot;&gt;+location: string&lt;/font&gt;" style="text;strokeColor=none;fillColor=none;align=left;verticalAlign=middle;spacingLeft=4;spacingRight=4;overflow=hidden;points=[[0,0.5],[1,0.5]];portConstraint=eastwest;rotatable=0;whiteSpace=wrap;html=1;" parent="0c0-FA_5eSMNET2WRwTZ-49" vertex="1">
          <mxGeometry y="110" width="280" height="20" as="geometry" />
        </mxCell>
        <mxCell id="0c0-FA_5eSMNET2WRwTZ-55" value="&lt;font style=&quot;font-size: 10px;&quot;&gt;&lt;code&gt;+organizerID&lt;/code&gt;: number&lt;/font&gt;" style="text;strokeColor=none;fillColor=none;align=left;verticalAlign=middle;spacingLeft=4;spacingRight=4;overflow=hidden;points=[[0,0.5],[1,0.5]];portConstraint=eastwest;rotatable=0;whiteSpace=wrap;html=1;" parent="0c0-FA_5eSMNET2WRwTZ-49" vertex="1">
          <mxGeometry y="130" width="280" height="20" as="geometry" />
        </mxCell>
        <mxCell id="0c0-FA_5eSMNET2WRwTZ-56" value="&lt;font style=&quot;font-size: 10px;&quot;&gt;&lt;code&gt;+createEvent(title: string, description: string, date: Date, location: string): void&lt;/code&gt;&lt;/font&gt;" style="text;strokeColor=none;fillColor=none;align=left;verticalAlign=middle;spacingLeft=4;spacingRight=4;overflow=hidden;points=[[0,0.5],[1,0.5]];portConstraint=eastwest;rotatable=0;whiteSpace=wrap;html=1;" parent="0c0-FA_5eSMNET2WRwTZ-49" vertex="1">
          <mxGeometry y="150" width="280" height="40" as="geometry" />
        </mxCell>
        <mxCell id="0c0-FA_5eSMNET2WRwTZ-57" value="&lt;font style=&quot;font-size: 10px;&quot;&gt;&lt;code&gt;+deleteEvent(): void&lt;/code&gt;&lt;/font&gt;" style="text;strokeColor=none;fillColor=none;align=left;verticalAlign=middle;spacingLeft=4;spacingRight=4;overflow=hidden;points=[[0,0.5],[1,0.5]];portConstraint=eastwest;rotatable=0;whiteSpace=wrap;html=1;" parent="0c0-FA_5eSMNET2WRwTZ-49" vertex="1">
          <mxGeometry y="190" width="280" height="20" as="geometry" />
        </mxCell>
        <mxCell id="0c0-FA_5eSMNET2WRwTZ-58" value="" style="endArrow=none;html=1;rounded=0;entryX=1.001;entryY=-0.002;entryDx=0;entryDy=0;entryPerimeter=0;" parent="0c0-FA_5eSMNET2WRwTZ-49" edge="1">
          <mxGeometry width="50" height="50" relative="1" as="geometry">
            <mxPoint x="-0.28" y="149.61" as="sourcePoint" />
            <mxPoint x="280" y="149.57000000000005" as="targetPoint" />
          </mxGeometry>
        </mxCell>
        <mxCell id="0c0-FA_5eSMNET2WRwTZ-89" style="edgeStyle=orthogonalEdgeStyle;rounded=0;orthogonalLoop=1;jettySize=auto;html=1;exitX=0.25;exitY=0;exitDx=0;exitDy=0;entryX=0.857;entryY=1;entryDx=0;entryDy=0;entryPerimeter=0;" parent="1" source="0c0-FA_5eSMNET2WRwTZ-59" target="0c0-FA_5eSMNET2WRwTZ-35" edge="1">
          <mxGeometry relative="1" as="geometry">
            <mxPoint x="950" y="280" as="targetPoint" />
          </mxGeometry>
        </mxCell>
        <mxCell id="0c0-FA_5eSMNET2WRwTZ-59" value="Message" style="swimlane;whiteSpace=wrap;html=1;startSize=30;" parent="1" vertex="1">
          <mxGeometry x="1101" y="445" width="280" height="190" as="geometry" />
        </mxCell>
        <mxCell id="0c0-FA_5eSMNET2WRwTZ-60" value="&lt;font style=&quot;font-size: 10px;&quot;&gt;-id: number&lt;/font&gt;" style="text;strokeColor=none;fillColor=none;align=left;verticalAlign=middle;spacingLeft=4;spacingRight=4;overflow=hidden;points=[[0,0.5],[1,0.5]];portConstraint=eastwest;rotatable=0;whiteSpace=wrap;html=1;" parent="0c0-FA_5eSMNET2WRwTZ-59" vertex="1">
          <mxGeometry y="30" width="280" height="20" as="geometry" />
        </mxCell>
        <mxCell id="0c0-FA_5eSMNET2WRwTZ-61" value="&lt;div&gt;&lt;font style=&quot;font-size: 10px;&quot;&gt;+senderID: number&lt;/font&gt;&lt;/div&gt;" style="text;strokeColor=none;fillColor=none;align=left;verticalAlign=middle;spacingLeft=4;spacingRight=4;overflow=hidden;points=[[0,0.5],[1,0.5]];portConstraint=eastwest;rotatable=0;whiteSpace=wrap;html=1;" parent="0c0-FA_5eSMNET2WRwTZ-59" vertex="1">
          <mxGeometry y="50" width="280" height="20" as="geometry" />
        </mxCell>
        <mxCell id="0c0-FA_5eSMNET2WRwTZ-62" value="&lt;font style=&quot;font-size: 10px;&quot;&gt;+receiverID: number&lt;/font&gt;" style="text;strokeColor=none;fillColor=none;align=left;verticalAlign=middle;spacingLeft=4;spacingRight=4;overflow=hidden;points=[[0,0.5],[1,0.5]];portConstraint=eastwest;rotatable=0;whiteSpace=wrap;html=1;" parent="0c0-FA_5eSMNET2WRwTZ-59" vertex="1">
          <mxGeometry y="70" width="280" height="20" as="geometry" />
        </mxCell>
        <mxCell id="0c0-FA_5eSMNET2WRwTZ-63" value="+content: string" style="text;strokeColor=none;fillColor=none;align=left;verticalAlign=middle;spacingLeft=4;spacingRight=4;overflow=hidden;points=[[0,0.5],[1,0.5]];portConstraint=eastwest;rotatable=0;whiteSpace=wrap;html=1;fontSize=10;" parent="0c0-FA_5eSMNET2WRwTZ-59" vertex="1">
          <mxGeometry y="90" width="280" height="20" as="geometry" />
        </mxCell>
        <mxCell id="0c0-FA_5eSMNET2WRwTZ-64" value="&lt;font style=&quot;font-size: 10px;&quot;&gt;+timestamp: Date&lt;/font&gt;" style="text;strokeColor=none;fillColor=none;align=left;verticalAlign=middle;spacingLeft=4;spacingRight=4;overflow=hidden;points=[[0,0.5],[1,0.5]];portConstraint=eastwest;rotatable=0;whiteSpace=wrap;html=1;" parent="0c0-FA_5eSMNET2WRwTZ-59" vertex="1">
          <mxGeometry y="110" width="280" height="20" as="geometry" />
        </mxCell>
        <mxCell id="0c0-FA_5eSMNET2WRwTZ-65" value="&lt;font style=&quot;font-size: 10px;&quot;&gt;&lt;code&gt;+&lt;/code&gt;&lt;code&gt;sendMessage(receiverId: number, content: string): void&lt;/code&gt;&lt;/font&gt;" style="text;strokeColor=none;fillColor=none;align=left;verticalAlign=middle;spacingLeft=4;spacingRight=4;overflow=hidden;points=[[0,0.5],[1,0.5]];portConstraint=eastwest;rotatable=0;whiteSpace=wrap;html=1;" parent="0c0-FA_5eSMNET2WRwTZ-59" vertex="1">
          <mxGeometry y="130" width="280" height="40" as="geometry" />
        </mxCell>
        <mxCell id="0c0-FA_5eSMNET2WRwTZ-66" value="&lt;font style=&quot;font-size: 10px;&quot;&gt;&lt;code&gt;+deleteMessage(): void&lt;/code&gt;&lt;/font&gt;" style="text;strokeColor=none;fillColor=none;align=left;verticalAlign=middle;spacingLeft=4;spacingRight=4;overflow=hidden;points=[[0,0.5],[1,0.5]];portConstraint=eastwest;rotatable=0;whiteSpace=wrap;html=1;" parent="0c0-FA_5eSMNET2WRwTZ-59" vertex="1">
          <mxGeometry y="170" width="280" height="20" as="geometry" />
        </mxCell>
        <mxCell id="0c0-FA_5eSMNET2WRwTZ-67" value="" style="endArrow=none;html=1;rounded=0;entryX=1;entryY=0;entryDx=0;entryDy=0;entryPerimeter=0;" parent="0c0-FA_5eSMNET2WRwTZ-59" target="0c0-FA_5eSMNET2WRwTZ-65" edge="1">
          <mxGeometry width="50" height="50" relative="1" as="geometry">
            <mxPoint y="130" as="sourcePoint" />
            <mxPoint x="200" y="130" as="targetPoint" />
          </mxGeometry>
        </mxCell>
        <mxCell id="0c0-FA_5eSMNET2WRwTZ-88" style="edgeStyle=orthogonalEdgeStyle;rounded=0;orthogonalLoop=1;jettySize=auto;html=1;exitX=0.5;exitY=0;exitDx=0;exitDy=0;entryX=0.5;entryY=1;entryDx=0;entryDy=0;entryPerimeter=0;" parent="1" source="0c0-FA_5eSMNET2WRwTZ-68" target="0c0-FA_5eSMNET2WRwTZ-35" edge="1">
          <mxGeometry relative="1" as="geometry">
            <mxPoint x="839.6923076923076" y="280" as="targetPoint" />
          </mxGeometry>
        </mxCell>
        <mxCell id="0c0-FA_5eSMNET2WRwTZ-68" value="Notification" style="swimlane;whiteSpace=wrap;html=1;startSize=30;" parent="1" vertex="1">
          <mxGeometry x="700" y="490" width="280" height="190" as="geometry" />
        </mxCell>
        <mxCell id="0c0-FA_5eSMNET2WRwTZ-69" value="&lt;font style=&quot;font-size: 10px;&quot;&gt;-id: number&lt;/font&gt;" style="text;strokeColor=none;fillColor=none;align=left;verticalAlign=middle;spacingLeft=4;spacingRight=4;overflow=hidden;points=[[0,0.5],[1,0.5]];portConstraint=eastwest;rotatable=0;whiteSpace=wrap;html=1;" parent="0c0-FA_5eSMNET2WRwTZ-68" vertex="1">
          <mxGeometry y="30" width="280" height="20" as="geometry" />
        </mxCell>
        <mxCell id="0c0-FA_5eSMNET2WRwTZ-70" value="&lt;div&gt;&lt;font style=&quot;font-size: 10px;&quot;&gt;+userID: number&lt;/font&gt;&lt;/div&gt;" style="text;strokeColor=none;fillColor=none;align=left;verticalAlign=middle;spacingLeft=4;spacingRight=4;overflow=hidden;points=[[0,0.5],[1,0.5]];portConstraint=eastwest;rotatable=0;whiteSpace=wrap;html=1;" parent="0c0-FA_5eSMNET2WRwTZ-68" vertex="1">
          <mxGeometry y="50" width="280" height="20" as="geometry" />
        </mxCell>
        <mxCell id="0c0-FA_5eSMNET2WRwTZ-71" value="&lt;font style=&quot;font-size: 10px;&quot;&gt;+message: string&lt;/font&gt;" style="text;strokeColor=none;fillColor=none;align=left;verticalAlign=middle;spacingLeft=4;spacingRight=4;overflow=hidden;points=[[0,0.5],[1,0.5]];portConstraint=eastwest;rotatable=0;whiteSpace=wrap;html=1;" parent="0c0-FA_5eSMNET2WRwTZ-68" vertex="1">
          <mxGeometry y="70" width="280" height="20" as="geometry" />
        </mxCell>
        <mxCell id="0c0-FA_5eSMNET2WRwTZ-72" value="+isRead: bool" style="text;strokeColor=none;fillColor=none;align=left;verticalAlign=middle;spacingLeft=4;spacingRight=4;overflow=hidden;points=[[0,0.5],[1,0.5]];portConstraint=eastwest;rotatable=0;whiteSpace=wrap;html=1;fontSize=10;" parent="0c0-FA_5eSMNET2WRwTZ-68" vertex="1">
          <mxGeometry y="110" width="280" height="20" as="geometry" />
        </mxCell>
        <mxCell id="0c0-FA_5eSMNET2WRwTZ-73" value="&lt;font style=&quot;font-size: 10px;&quot;&gt;+timestamp: Date&lt;/font&gt;" style="text;strokeColor=none;fillColor=none;align=left;verticalAlign=middle;spacingLeft=4;spacingRight=4;overflow=hidden;points=[[0,0.5],[1,0.5]];portConstraint=eastwest;rotatable=0;whiteSpace=wrap;html=1;" parent="0c0-FA_5eSMNET2WRwTZ-68" vertex="1">
          <mxGeometry y="90" width="280" height="20" as="geometry" />
        </mxCell>
        <mxCell id="0c0-FA_5eSMNET2WRwTZ-74" value="&lt;font style=&quot;font-size: 10px;&quot;&gt;&lt;code&gt;+sendNotification(userId: number, message: string): void&lt;/code&gt;&lt;/font&gt;" style="text;strokeColor=none;fillColor=none;align=left;verticalAlign=middle;spacingLeft=4;spacingRight=4;overflow=hidden;points=[[0,0.5],[1,0.5]];portConstraint=eastwest;rotatable=0;whiteSpace=wrap;html=1;" parent="0c0-FA_5eSMNET2WRwTZ-68" vertex="1">
          <mxGeometry y="130" width="280" height="40" as="geometry" />
        </mxCell>
        <mxCell id="0c0-FA_5eSMNET2WRwTZ-75" value="&lt;font style=&quot;font-size: 10px;&quot; face=&quot;monospace&quot;&gt;&lt;code&gt;+&lt;/code&gt;&lt;code&gt;markAsRead(): void&lt;/code&gt;&lt;/font&gt;" style="text;strokeColor=none;fillColor=none;align=left;verticalAlign=middle;spacingLeft=4;spacingRight=4;overflow=hidden;points=[[0,0.5],[1,0.5]];portConstraint=eastwest;rotatable=0;whiteSpace=wrap;html=1;" parent="0c0-FA_5eSMNET2WRwTZ-68" vertex="1">
          <mxGeometry y="170" width="280" height="20" as="geometry" />
        </mxCell>
        <mxCell id="0c0-FA_5eSMNET2WRwTZ-76" value="" style="endArrow=none;html=1;rounded=0;entryX=1;entryY=0;entryDx=0;entryDy=0;entryPerimeter=0;" parent="0c0-FA_5eSMNET2WRwTZ-68" target="0c0-FA_5eSMNET2WRwTZ-74" edge="1">
          <mxGeometry width="50" height="50" relative="1" as="geometry">
            <mxPoint y="130" as="sourcePoint" />
            <mxPoint x="200" y="130" as="targetPoint" />
          </mxGeometry>
        </mxCell>
        <mxCell id="0c0-FA_5eSMNET2WRwTZ-87" style="edgeStyle=orthogonalEdgeStyle;rounded=0;orthogonalLoop=1;jettySize=auto;html=1;exitX=0.75;exitY=0;exitDx=0;exitDy=0;" parent="1" source="0c0-FA_5eSMNET2WRwTZ-77" edge="1">
          <mxGeometry relative="1" as="geometry">
            <mxPoint x="740" y="270" as="targetPoint" />
            <mxPoint x="579.9999999999999" y="435" as="sourcePoint" />
          </mxGeometry>
        </mxCell>
        <mxCell id="0c0-FA_5eSMNET2WRwTZ-77" value="&lt;div&gt;Report&lt;/div&gt;" style="swimlane;whiteSpace=wrap;html=1;startSize=30;" parent="1" vertex="1">
          <mxGeometry x="300" y="445" width="280" height="190" as="geometry" />
        </mxCell>
        <mxCell id="0c0-FA_5eSMNET2WRwTZ-78" value="&lt;font style=&quot;font-size: 10px;&quot;&gt;-id: number&lt;/font&gt;" style="text;strokeColor=none;fillColor=none;align=left;verticalAlign=middle;spacingLeft=4;spacingRight=4;overflow=hidden;points=[[0,0.5],[1,0.5]];portConstraint=eastwest;rotatable=0;whiteSpace=wrap;html=1;" parent="0c0-FA_5eSMNET2WRwTZ-77" vertex="1">
          <mxGeometry y="30" width="280" height="20" as="geometry" />
        </mxCell>
        <mxCell id="0c0-FA_5eSMNET2WRwTZ-79" value="&lt;div&gt;&lt;font style=&quot;font-size: 10px;&quot;&gt;+title: string&lt;/font&gt;&lt;/div&gt;" style="text;strokeColor=none;fillColor=none;align=left;verticalAlign=middle;spacingLeft=4;spacingRight=4;overflow=hidden;points=[[0,0.5],[1,0.5]];portConstraint=eastwest;rotatable=0;whiteSpace=wrap;html=1;" parent="0c0-FA_5eSMNET2WRwTZ-77" vertex="1">
          <mxGeometry y="50" width="280" height="20" as="geometry" />
        </mxCell>
        <mxCell id="0c0-FA_5eSMNET2WRwTZ-80" value="&lt;font style=&quot;font-size: 10px;&quot;&gt;+content: string&lt;/font&gt;" style="text;strokeColor=none;fillColor=none;align=left;verticalAlign=middle;spacingLeft=4;spacingRight=4;overflow=hidden;points=[[0,0.5],[1,0.5]];portConstraint=eastwest;rotatable=0;whiteSpace=wrap;html=1;" parent="0c0-FA_5eSMNET2WRwTZ-77" vertex="1">
          <mxGeometry y="70" width="280" height="20" as="geometry" />
        </mxCell>
        <mxCell id="0c0-FA_5eSMNET2WRwTZ-81" value="+generatedAt: Date" style="text;strokeColor=none;fillColor=none;align=left;verticalAlign=middle;spacingLeft=4;spacingRight=4;overflow=hidden;points=[[0,0.5],[1,0.5]];portConstraint=eastwest;rotatable=0;whiteSpace=wrap;html=1;fontSize=10;" parent="0c0-FA_5eSMNET2WRwTZ-77" vertex="1">
          <mxGeometry y="110" width="280" height="20" as="geometry" />
        </mxCell>
        <mxCell id="0c0-FA_5eSMNET2WRwTZ-82" value="&lt;font style=&quot;font-size: 10px;&quot;&gt;+generatedBy: number&lt;/font&gt;" style="text;strokeColor=none;fillColor=none;align=left;verticalAlign=middle;spacingLeft=4;spacingRight=4;overflow=hidden;points=[[0,0.5],[1,0.5]];portConstraint=eastwest;rotatable=0;whiteSpace=wrap;html=1;" parent="0c0-FA_5eSMNET2WRwTZ-77" vertex="1">
          <mxGeometry y="90" width="280" height="20" as="geometry" />
        </mxCell>
        <mxCell id="0c0-FA_5eSMNET2WRwTZ-83" value="&lt;font style=&quot;font-size: 10px;&quot; face=&quot;monospace&quot;&gt;&lt;code&gt;+&lt;/code&gt;&lt;code&gt;generateReport(title: string, content: string): void&lt;/code&gt;&lt;/font&gt;" style="text;strokeColor=none;fillColor=none;align=left;verticalAlign=middle;spacingLeft=4;spacingRight=4;overflow=hidden;points=[[0,0.5],[1,0.5]];portConstraint=eastwest;rotatable=0;whiteSpace=wrap;html=1;" parent="0c0-FA_5eSMNET2WRwTZ-77" vertex="1">
          <mxGeometry y="130" width="280" height="40" as="geometry" />
        </mxCell>
        <mxCell id="0c0-FA_5eSMNET2WRwTZ-84" value="&lt;font style=&quot;font-size: 10px;&quot;&gt;&lt;code&gt;+deleteReport(): void&lt;/code&gt;&lt;/font&gt;" style="text;strokeColor=none;fillColor=none;align=left;verticalAlign=middle;spacingLeft=4;spacingRight=4;overflow=hidden;points=[[0,0.5],[1,0.5]];portConstraint=eastwest;rotatable=0;whiteSpace=wrap;html=1;" parent="0c0-FA_5eSMNET2WRwTZ-77" vertex="1">
          <mxGeometry y="170" width="280" height="20" as="geometry" />
        </mxCell>
        <mxCell id="0c0-FA_5eSMNET2WRwTZ-85" value="" style="endArrow=none;html=1;rounded=0;entryX=1;entryY=0;entryDx=0;entryDy=0;entryPerimeter=0;" parent="0c0-FA_5eSMNET2WRwTZ-77" target="0c0-FA_5eSMNET2WRwTZ-83" edge="1">
          <mxGeometry width="50" height="50" relative="1" as="geometry">
            <mxPoint y="130" as="sourcePoint" />
            <mxPoint x="200" y="130" as="targetPoint" />
          </mxGeometry>
        </mxCell>
        <mxCell id="0c0-FA_5eSMNET2WRwTZ-90" style="edgeStyle=orthogonalEdgeStyle;rounded=0;orthogonalLoop=1;jettySize=auto;html=1;exitX=0;exitY=0.5;exitDx=0;exitDy=0;entryX=1;entryY=0.5;entryDx=0;entryDy=0;" parent="1" source="0c0-FA_5eSMNET2WRwTZ-42" target="0c0-FA_5eSMNET2WRwTZ-21" edge="1">
          <mxGeometry relative="1" as="geometry" />
        </mxCell>
        <mxCell id="SdMlt_PW4ARby_rtLCIt-3" value="Alumni Connect Portal" style="text;html=1;align=center;verticalAlign=middle;whiteSpace=wrap;rounded=0;fontStyle=1;fontSize=16;labelBorderColor=none;textShadow=0;" vertex="1" parent="1">
          <mxGeometry x="120" y="40" width="190" height="30" as="geometry" />
        </mxCell>
      </root>
    </mxGraphModel>
  </diagram>
</mxfile>
